<?xml version="1.0" encoding="UTF-8"?>
<svg xmlns="http://www.w3.org/2000/svg" xmlns:xlink="http://www.w3.org/1999/xlink" width="2267.7165" height="850.3937" viewBox="0 0 2267.7165 850.3937">
<defs>
<g>
<g id="glyph-0-0">
<path d="M 220.015625 0 L 158.796875 0 L 78 -122.75 L 78 0 L 16.78125 0 L 16.78125 -219.703125 L 78 -219.703125 L 158.796875 -95.40625 L 158.796875 -219.703125 L 220.015625 -219.703125 Z M 220.015625 0 "/>
</g>
<g id="glyph-0-1">
<path d="M 161.28125 -220.015625 L 161.28125 -73.953125 C 161.28125 -49.09375 154.75 -30.140625 141.703125 -17.40625 C 128.65625 -4.34375 110.3125 2.171875 86.703125 2.171875 C 61.21875 2.171875 41.015625 -4.96875 26.40625 -18.953125 C 11.5 -32.9375 4.046875 -53.453125 4.046875 -80.484375 L 64.328125 -80.484375 C 64.328125 -62.15625 70.84375 -52.828125 83.90625 -52.828125 C 94.78125 -52.828125 100.375 -59.96875 100.375 -73.953125 L 100.375 -220.015625 Z M 161.28125 -220.015625 "/>
</g>
<g id="glyph-0-2">
<path d="M 76.4375 -220.015625 L 76.4375 -94.46875 C 76.4375 -82.03125 79.234375 -72.40625 84.828125 -65.875 C 90.125 -59.046875 98.5 -55.625 109.6875 -55.625 C 120.875 -55.625 129.265625 -59.046875 135.171875 -65.875 C 140.765625 -72.71875 143.5625 -82.34375 143.5625 -94.46875 L 143.5625 -220.015625 L 204.46875 -220.015625 L 204.46875 -94.46875 C 204.46875 -73.640625 200.4375 -56.25 192.046875 -41.640625 C 183.65625 -27.03125 172.15625 -16.15625 157.546875 -9.015625 C 142.9375 -1.546875 126.78125 2.171875 108.453125 2.171875 C 90.125 2.171875 74.265625 -1.546875 60.28125 -8.703125 C 46.296875 -15.84375 35.109375 -26.71875 27.34375 -41.328125 C 19.578125 -55.9375 15.53125 -73.640625 15.53125 -94.46875 L 15.53125 -220.015625 Z M 76.4375 -220.015625 "/>
</g>
<g id="glyph-0-3">
<path d="M 135.796875 -112.484375 L 220.9375 0 L 147.296875 0 L 78 -97.265625 L 78 0 L 16.78125 0 L 16.78125 -220.015625 L 78 -220.015625 L 78 -124.921875 L 147.921875 -220.015625 L 220.9375 -220.015625 Z M 135.796875 -112.484375 "/>
</g>
<g id="glyph-0-4">
<path d="M 78 -220.015625 L 78 0 L 16.78125 0 L 16.78125 -220.015625 Z M 78 -220.015625 "/>
</g>
<g id="glyph-0-5">
<path d="M 272.53125 -219.078125 L 272.53125 0 L 211.9375 0 L 211.9375 -124.296875 L 171.21875 0 L 118.703125 0 L 78 -124.296875 L 78 0 L 16.78125 0 L 16.78125 -219.078125 L 91.671875 -219.078125 L 145.734375 -76.75 L 198.265625 -219.078125 Z M 272.53125 -219.078125 "/>
</g>
<g id="glyph-0-6">
</g>
<g id="glyph-1-0">
<path d="M 24.390625 -59.59375 L 24.390625 -52.28125 L 17.25 -52.28125 L 17.25 -7.734375 L 38.71875 -7.734375 L 38.71875 -27.90625 L 45.9375 -27.90625 L 45.9375 0 L 1.71875 0 L 1.71875 -7.734375 L 8.75 -7.734375 L 8.75 -52.28125 L 1.71875 -52.28125 L 1.71875 -59.59375 Z M 24.390625 -59.59375 "/>
</g>
<g id="glyph-1-1">
<path d="M 43.1875 -7.734375 L 43.1875 -19.0625 L 50.40625 -19.0625 L 50.40625 0 L 1.71875 0 L 1.71875 -7.734375 L 8.75 -7.734375 L 8.75 -52.28125 L 1.71875 -52.28125 L 1.71875 -59.59375 L 50.40625 -59.59375 L 50.40625 -41.90625 L 43.1875 -41.90625 L 43.1875 -52.28125 L 17.25 -52.28125 L 17.25 -34.171875 L 40.4375 -34.171875 L 40.4375 -27.046875 L 17.25 -27.046875 L 17.25 -7.734375 Z M 43.1875 -7.734375 "/>
</g>
<g id="glyph-1-2">
<path d="M 51.765625 -40.4375 C 50.0625 -44.46875 47.65625 -47.5625 44.5625 -49.625 C 41.5625 -51.6875 37.953125 -52.71875 33.65625 -52.71875 C 27.296875 -52.71875 22.0625 -50.65625 18.109375 -46.453125 C 14.078125 -42.25 12.109375 -36.65625 12.109375 -29.796875 C 12.109375 -22.75 14.171875 -17.171875 18.203125 -13.046875 C 22.234375 -8.84375 27.640625 -6.78125 34.421875 -6.78125 C 39.671875 -6.78125 43.953125 -8.078125 47.21875 -10.734375 C 50.484375 -13.3125 52.375 -16.921875 52.796875 -21.46875 L 41.90625 -21.46875 L 41.90625 -28.84375 L 62.328125 -28.84375 C 62.328125 -28.59375 62.421875 -28.25 62.421875 -27.90625 C 62.421875 -27.5625 62.421875 -27.046875 62.421875 -26.359375 C 62.421875 -17.9375 59.765625 -11.25 54.4375 -6.265625 C 49.109375 -1.28125 41.984375 1.203125 33.0625 1.203125 C 24.21875 1.203125 17 -1.71875 11.421875 -7.46875 C 5.84375 -13.21875 3 -20.6875 3 -29.703125 C 3 -38.71875 5.84375 -46.1875 11.5 -51.9375 C 17.171875 -57.703125 24.296875 -60.609375 33.0625 -60.609375 C 37.515625 -60.609375 41.296875 -59.9375 44.390625 -58.5625 C 47.484375 -57.09375 50.140625 -54.953125 52.375 -51.9375 L 52.375 -59.59375 L 59.59375 -59.59375 L 59.59375 -40.4375 Z M 51.765625 -40.4375 "/>
</g>
<g id="glyph-1-3">
<path d="M 19.3125 -28.328125 L 34.265625 -28.328125 L 26.875 -50.484375 Z M -2.40625 0 L -2.40625 -7.734375 L 4.46875 -7.734375 L 20 -52.28125 L 12.28125 -52.28125 L 12.28125 -59.59375 L 42.078125 -59.59375 L 42.078125 -52.28125 L 34.765625 -52.28125 L 50.140625 -7.734375 L 56.578125 -7.734375 L 56.578125 0 L 34.265625 0 L 34.265625 -7.734375 L 41.46875 -7.734375 L 36.828125 -21.125 L 16.75 -21.125 L 12.1875 -7.734375 L 18.890625 -7.734375 L 18.890625 0 Z M -2.40625 0 "/>
</g>
</g>
<clipPath id="clip-0">
<path clip-rule="nonzero" d="M 2006 269 L 2266.765625 269 L 2266.765625 489 L 2006 489 Z M 2006 269 "/>
</clipPath>
</defs>
<path fill-rule="evenodd" fill="rgb(100%, 100%, 100%)" fill-opacity="1" d="M 361.261719 68.714844 C 557.976562 68.714844 717.441406 228.179688 717.441406 424.894531 C 717.441406 621.605469 557.976562 781.074219 361.261719 781.074219 C 164.550781 781.074219 5.082031 621.605469 5.082031 424.894531 C 5.082031 228.179688 164.550781 68.714844 361.261719 68.714844 "/>
<path fill-rule="evenodd" fill="rgb(3.137207%, 19.215393%, 26.274109%)" fill-opacity="1" d="M 270.988281 166.394531 L 451.535156 166.394531 L 451.535156 202.503906 L 270.988281 202.503906 Z M 270.988281 166.394531 "/>
<path fill-rule="evenodd" fill="rgb(3.137207%, 19.215393%, 26.274109%)" fill-opacity="1" d="M 190.878906 577.222656 L 531.644531 577.222656 L 531.644531 613.332031 L 190.878906 613.332031 Z M 190.878906 577.222656 "/>
<path fill-rule="evenodd" fill="rgb(3.137207%, 19.215393%, 26.274109%)" fill-opacity="1" d="M 270.988281 647.285156 L 451.535156 647.285156 L 451.535156 683.394531 L 270.988281 683.394531 Z M 270.988281 647.285156 "/>
<path fill-rule="evenodd" fill="rgb(92.549133%, 35.68573%, 14.117432%)" fill-opacity="1" d="M 451.539062 314.484375 L 451.539062 538.488281 L 343.207031 538.488281 L 343.207031 350.59375 L 307.097656 350.59375 L 307.097656 538.488281 L 270.988281 538.488281 L 270.988281 314.480469 L 379.316406 314.480469 L 379.316406 502.378906 L 415.429688 502.378906 L 415.429688 314.484375 Z M 451.539062 314.484375 "/>
<path fill-rule="evenodd" fill="rgb(3.137207%, 19.215393%, 26.274109%)" fill-opacity="1" d="M 191.425781 240.984375 L 531.097656 240.984375 C 560.871094 240.984375 585.234375 265.34375 585.234375 295.117188 C 585.234375 324.890625 560.871094 349.25 531.097656 349.25 L 518.101562 349.25 L 468.738281 313.171875 L 531.101562 313.171875 C 541.027344 313.171875 549.152344 305.046875 549.152344 295.117188 C 549.152344 285.1875 541.027344 277.0625 531.101562 277.0625 L 191.421875 277.0625 C 181.496094 277.0625 173.371094 285.1875 173.371094 295.117188 C 173.371094 305.046875 181.496094 313.171875 191.421875 313.171875 L 253.785156 313.171875 L 202.816406 349.25 L 191.425781 349.25 C 161.652344 349.25 137.292969 324.890625 137.292969 295.117188 C 137.292969 265.34375 161.652344 240.984375 191.425781 240.984375 "/>
<g fill="rgb(3.137207%, 19.215393%, 26.274109%)" fill-opacity="1">
<use xlink:href="#glyph-0-0" x="850.244157" y="488.133379"/>
</g>
<g fill="rgb(3.137207%, 19.215393%, 26.274109%)" fill-opacity="1">
<use xlink:href="#glyph-0-1" x="1078.76433" y="488.133379"/>
</g>
<g fill="rgb(3.137207%, 19.215393%, 26.274109%)" fill-opacity="1">
<use xlink:href="#glyph-0-2" x="1247.309563" y="488.133379"/>
</g>
<g fill="rgb(3.137207%, 19.215393%, 26.274109%)" fill-opacity="1">
<use xlink:href="#glyph-0-0" x="1458.738522" y="488.133379"/>
</g>
<g fill="rgb(3.137207%, 19.215393%, 26.274109%)" fill-opacity="1">
<use xlink:href="#glyph-0-3" x="1687.258695" y="488.133379"/>
</g>
<g fill="rgb(3.137207%, 19.215393%, 26.274109%)" fill-opacity="1">
<use xlink:href="#glyph-0-4" x="1903.038252" y="488.133379"/>
</g>
<g clip-path="url(#clip-0)">
<g fill="rgb(3.137207%, 19.215393%, 26.274109%)" fill-opacity="1">
<use xlink:href="#glyph-0-5" x="1989.545776" y="488.133379"/>
<use xlink:href="#glyph-0-6" x="2279.165192" y="488.133379"/>
</g>
</g>
<g fill="rgb(3.137207%, 19.215393%, 26.274109%)" fill-opacity="1">
<use xlink:href="#glyph-1-0" x="1941.340244" y="569.14592"/>
</g>
<g fill="rgb(3.137207%, 19.215393%, 26.274109%)" fill-opacity="1">
<use xlink:href="#glyph-1-1" x="2004.847466" y="569.14592"/>
</g>
<g fill="rgb(3.137207%, 19.215393%, 26.274109%)" fill-opacity="1">
<use xlink:href="#glyph-1-2" x="2072.217834" y="569.14592"/>
</g>
<g fill="rgb(3.137207%, 19.215393%, 26.274109%)" fill-opacity="1">
<use xlink:href="#glyph-1-3" x="2149.017978" y="569.14592"/>
</g>
<g fill="rgb(3.137207%, 19.215393%, 26.274109%)" fill-opacity="1">
<use xlink:href="#glyph-1-0" x="2216.131129" y="569.14592"/>
</g>
</svg>
